<svg width="58" height="62" viewBox="0 0 58 62" fill="none" xmlns="http://www.w3.org/2000/svg" xmlns:xlink="http://www.w3.org/1999/xlink">
<path d="M3.22556 11.248L0.53913 9.52755L3.22556 7.8071C18.5182 -1.98663 38.0547 -2.21112 53.5684 7.22863L57.3466 9.52755L53.5684 11.8265C38.0547 21.2662 18.5182 21.0417 3.22556 11.248Z" stroke="#989389" stroke-width="0.604339"></path>
<path d="M3.0626 32.9749L0 31.0135V30.9864L3.0626 29.0251C18.4525 19.1691 38.1132 18.9431 53.7255 28.4429L57.9056 30.9864V31.0135L53.7255 33.557C38.1132 43.0568 18.4525 42.8309 3.0626 32.9749Z" fill="#A4CFE8"></path>
<path d="M3.19743 54.2367L0.442395 52.4724L3.19743 50.708C18.5069 40.9035 38.0648 40.6788 53.5955 50.1289L57.4469 52.4724L53.5955 54.8159C38.0648 64.266 18.5069 64.0412 3.19743 54.2367Z" stroke="#989389" stroke-width="0.5"></path>
</svg>