<svg width="94" height="48" viewBox="0 0 94 48" fill="none" xmlns="http://www.w3.org/2000/svg" xmlns:xlink="http://www.w3.org/1999/xlink">
<path d="M13.3254 11.0128C13.8968 10.5713 13.9228 10.2336 13.6111 9.99986C13.1955 9.6622 12.4942 9.55831 11.9747 9.55831C8.39035 9.55831 7.29945 15.766 7.29945 18.779C7.27347 22.4153 8.90982 23.4803 10.754 23.4803C12.4682 23.4803 14.4422 22.1296 15.7409 19.6102C15.9487 19.5063 16.2344 19.6361 16.4162 19.8439C15.1176 22.4153 12.9617 24.6491 8.80593 24.6491C2.3904 24.6491 -0.0511376 21.9738 0.000810015 17.9219C0.000810015 11.9219 4.96181 8.70117 11.0397 8.70117C13.1695 8.70117 17.1175 9.89597 17.1175 12.7271C17.1175 14.1816 15.8708 15.5583 14.3643 15.5583C13.0397 15.5583 12.2085 14.6492 12.1565 13.5063C12.1565 12.5713 12.5721 11.5843 13.3254 11.0128Z" fill="currentColor"></path>
<path d="M20.2343 19.9738L21.1434 13.4804C21.2733 12.2856 21.4291 11.2467 20.9616 11.2467C20.4421 11.2467 19.4032 12.7791 18.8058 15.3245C18.572 15.4284 18.3642 15.5064 18.1045 15.3245C19.0136 11.0908 21.2213 8.70122 24.3901 8.70122C27.0135 8.70122 28.4421 10.6233 28.0525 13.3765L27.1434 19.87C27.0135 21.0647 26.8577 22.1297 27.3512 22.1297C27.7927 22.1297 28.8836 20.4414 29.481 17.9998C29.7148 17.87 29.9226 17.87 30.1823 17.9998C29.2732 22.2336 27.0655 24.6232 23.8966 24.6232C21.2993 24.6491 19.8707 22.7271 20.2343 19.9738ZM25.6888 0C27.7408 0 29.4291 1.61037 29.4291 3.58438C29.4291 5.58436 27.7408 7.16877 25.6888 7.16877C23.6369 7.16877 22.0006 5.55839 22.0006 3.58438C22.0006 1.61037 23.6369 0 25.6888 0Z" fill="currentColor"></path>
<path d="M43.6109 19.9738L44.52 13.5063C44.7278 11.7661 44.494 10.7531 43.7927 10.7531C42.9875 10.7531 41.2473 12.4933 40.52 15.2985L39.3252 24.1296C37.0135 23.8439 34.7279 23.8958 32.4162 24.1296L33.8707 13.4803C34.0525 12.2856 34.1564 11.2466 33.6889 11.2466C33.1694 11.2466 32.1305 12.7791 31.5331 15.3245C31.2993 15.4284 31.0915 15.5063 30.8318 15.3245C31.7409 11.0908 33.9486 8.70117 37.1174 8.70117C39.4811 8.70117 40.8836 10.2596 40.8577 12.6232C42.2083 10.1038 44.4421 8.70117 47.3771 8.70117C50.1823 8.70117 51.8186 10.7271 51.403 13.6362L50.5199 19.8959C50.3901 21.0907 50.2342 22.1556 50.7277 22.1556C51.1693 22.1556 52.2602 20.4673 52.8576 18.0258C53.0913 17.8959 53.2991 17.8959 53.5589 18.0258C52.6498 22.2595 50.442 24.6491 47.2732 24.6491C44.6498 24.6491 43.2213 22.727 43.6109 19.9738Z" fill="currentColor"></path>
<path d="M67.922 11.0128C68.4935 10.5713 68.5194 10.2336 68.2078 9.99986C67.7922 9.6622 67.0909 9.55831 66.5714 9.55831C62.987 9.55831 61.8961 15.766 61.8961 18.779C61.8701 22.4153 63.5065 23.4803 65.3506 23.4803C67.0649 23.4803 69.0389 22.1296 70.3376 19.6102C70.5454 19.5063 70.8311 19.6361 71.0129 19.8439C69.7142 22.4153 67.5584 24.6491 63.4026 24.6491C56.9871 24.6491 54.5455 21.9738 54.5975 17.9219C54.5975 11.9219 59.5585 8.70117 65.6364 8.70117C67.7662 8.70117 71.7142 9.89597 71.7142 12.7271C71.7142 14.1816 70.4675 15.5583 68.961 15.5583C67.6363 15.5583 66.8052 14.6492 66.7532 13.5063C66.7532 12.5713 67.1688 11.5843 67.922 11.0128Z" fill="currentColor"></path>
<path d="M72.3638 24.1296L75.5066 1.92197C75.5326 1.63625 75.3767 1.48041 75.065 1.48041H73.7664L73.8702 0.597303H76.7793L82.6754 0.0258789L80.8832 12.5712C82.2338 10.0518 84.4676 8.70112 87.4026 8.70112C90.2078 8.70112 91.7922 10.7271 91.4285 13.6361L90.5454 19.8958C90.3636 21.0906 90.2337 22.1555 90.7532 22.1555C91.1688 22.1555 92.2857 20.4673 92.8831 18.0257C93.1168 17.8958 93.3246 17.8958 93.5844 18.0257C92.6753 22.2594 90.4675 24.649 87.2727 24.649C84.7013 24.649 83.2468 22.727 83.6104 19.9738L84.5195 13.5063C84.7533 11.766 84.5195 10.7531 83.8182 10.7531C83.013 10.7531 81.1949 12.5712 80.4936 15.5063H80.4676L79.2728 24.1296C79.117 24.1036 72.5716 24.1036 72.3638 24.1296Z" fill="currentColor"></path>
<path d="M50.3641 46.6229H51.4031C51.6628 46.6229 51.8186 46.493 51.8186 46.2593V30.3893C51.8186 30.1555 51.6368 30.0256 51.4031 30.0256H50.3641V29.3243H59.1173V29.3503H62.5978C67.3769 29.3503 70.338 31.2724 70.338 35.1684C70.338 39.532 67.3769 40.6749 62.5718 40.6749H59.1173V46.3112C59.1433 46.519 59.3251 46.6229 59.5329 46.6229H61.7147V47.3242H50.3381V46.6229H50.3641ZM59.1433 30.0516V39.9736H59.9744C62.5978 39.9736 62.7017 37.9996 62.7017 35.2204C62.7017 32.0776 62.2861 30.0516 59.6108 30.0516H59.1433Z" fill="currentColor"></path>
<path d="M71.3507 46.6229H72.3896C72.6494 46.6229 72.8052 46.493 72.8052 46.2593V30.3893C72.8052 30.1555 72.6234 30.0256 72.3896 30.0256H71.3507V29.3243H80.1038V29.3503H83.5843C88.3635 29.3503 91.3245 31.1165 91.3245 34.7529C91.3245 37.3762 89.87 38.6749 87.4285 39.2204C90.2336 39.7918 91.7141 41.7138 91.7141 43.9736C91.7141 44.9865 91.6882 45.8696 92.2856 45.8696C92.7011 45.8696 93.0648 45.2463 93.2985 44.8826L93.9998 45.2722C93.1427 46.7528 91.5323 47.7657 89.0908 47.7657C85.7661 47.7657 83.6882 46.467 83.6623 43.3502C83.6363 40.4152 83.1428 39.7139 81.5064 39.558H80.1038V46.3112C80.1298 46.519 80.3116 46.6229 80.5194 46.6229H82.7012V47.3242H71.3247V46.6229H71.3507ZM80.1038 30.0516V38.8567H80.935C83.5584 38.8567 83.6623 37.1684 83.6623 34.8048C83.6623 31.9217 83.2467 30.0516 80.5714 30.0516H80.1038Z" fill="currentColor"></path>
</svg>