<svg viewBox="0 0 1376 381" fill="none" xmlns="http://www.w3.org/2000/svg" xmlns:xlink="http://www.w3.org/1999/xlink">
<path d="M185.921 174.682L177.736 98.2866H172.279C165.263 125.96 156.688 98.2866 106.408 98.2866C47.9419 98.2866 0 145.449 0 205.474C0 265.499 45.2135 309.933 105.238 309.933C156.298 309.933 186.311 277.971 191.768 233.148L186.311 231.978C178.515 256.924 162.535 268.617 138.369 268.617C99.7815 268.617 72.1077 230.029 72.1077 183.257C72.1077 141.551 91.2065 109.2 118.101 109.2C143.046 109.2 169.161 135.705 180.464 174.682H185.921Z" fill="#282424"></path>
<path d="M237.721 83.0855C263.056 83.0855 281.375 65.1561 281.375 41.38C281.375 18.3835 263.056 0.84375 237.721 0.84375C212.386 0.84375 194.067 18.3835 194.067 41.38C194.067 65.1561 212.386 83.0855 237.721 83.0855ZM273.58 98.2866H268.123L181.594 124.791V130.248C192.118 131.417 201.083 136.874 201.083 154.803V273.684C201.083 288.495 196.795 294.732 181.594 298.629V304.086H293.069V298.629C277.868 294.732 273.58 288.495 273.58 273.684V98.2866Z" fill="#282424"></path>
<path d="M499.678 166.886C499.678 126.35 481.359 98.6764 440.043 98.6764C412.759 98.6764 392.491 118.555 374.951 140.382V98.2866H369.494L282.965 124.791V130.248C293.489 131.417 302.454 136.874 302.454 154.803V273.684C302.454 288.495 298.166 294.732 282.965 298.629V304.086H394.44V298.629C379.239 294.732 374.951 288.495 374.951 273.684V153.634C384.306 145.839 392.881 142.721 403.794 142.721C418.216 142.721 427.18 153.634 427.18 171.564V273.684C427.18 288.495 422.893 294.732 407.692 298.629V304.086H519.167V298.629C503.965 294.732 499.678 288.495 499.678 273.684V166.886Z" fill="#282424"></path>
<path d="M691.01 174.682L682.825 98.2866H677.368C670.352 125.96 661.777 98.2866 611.497 98.2866C553.031 98.2866 505.089 145.449 505.089 205.474C505.089 265.499 550.303 309.933 610.327 309.933C661.387 309.933 691.4 277.971 696.857 233.148L691.4 231.978C683.604 256.924 667.624 268.617 643.458 268.617C604.871 268.617 577.197 230.029 577.197 183.257C577.197 141.551 596.296 109.2 623.19 109.2C648.135 109.2 674.25 135.705 685.553 174.682H691.01Z" fill="#282424"></path>
<path d="M903.396 166.886C903.396 126.35 885.077 98.6764 843.761 98.6764C816.477 98.6764 796.209 118.555 778.669 140.382V22.2812H773.212L686.683 48.7857V54.2425C697.207 55.4118 706.172 60.8686 706.172 78.7981V273.684C706.172 288.495 701.884 294.732 686.683 298.629V304.086H798.158V298.629C782.957 294.732 778.669 288.495 778.669 273.684V153.634C788.024 145.839 796.599 142.721 807.512 142.721C821.934 142.721 830.898 153.634 830.898 171.564V273.684C830.898 288.495 826.611 294.732 811.41 298.629V304.086H922.884V298.629C907.683 294.732 903.396 288.495 903.396 273.684V166.886Z" fill="#282424"></path>
<path d="M1102.21 98.2866C1075.71 98.2866 1057 116.996 1050.76 138.433V98.2866H1045.3L958.774 124.791V130.248C969.298 131.417 978.263 136.874 978.263 154.803V350.859C978.263 365.67 975.924 370.737 955.656 375.414V380.871H1081.16V375.414C1053.1 370.737 1050.76 365.67 1050.76 350.859V304.086C1060.5 307.984 1071.03 309.933 1081.55 309.933C1141.97 309.933 1186.79 265.888 1186.79 197.289C1186.79 145.839 1159.12 98.2866 1102.21 98.2866ZM1074.93 299.019C1060.5 299.019 1050.76 276.802 1050.76 248.738V149.347C1053.88 140.382 1061.67 135.705 1070.25 135.705C1101.04 135.705 1111.95 175.072 1111.95 215.608C1111.95 261.601 1097.14 299.019 1074.93 299.019Z" fill="#282424"></path>
<path d="M1337.41 98.2866C1313.25 98.2866 1284.01 120.893 1276.22 168.446V98.2866H1270.76L1184.23 124.791V130.248C1194.76 131.417 1203.72 136.874 1203.72 154.803V274.074C1203.72 288.885 1201.38 293.952 1181.11 298.629V304.086H1306.62V298.629C1278.56 293.952 1276.22 288.885 1276.22 274.074V206.253C1276.61 173.123 1292.59 148.177 1312.86 148.177C1326.89 148.177 1330.4 161.43 1349.11 161.43C1363.92 161.43 1376 150.516 1376 129.468C1376 106.472 1357.29 98.2866 1337.41 98.2866Z" fill="#282424"></path>
</svg>